<svg width="18" height="22" viewBox="0 0 18 22" fill="none" xmlns="http://www.w3.org/2000/svg">
<path d="M11.5 1H3C2.46957 1 1.96086 1.21071 1.58579 1.58579C1.21071 1.96086 1 2.46957 1 3V19C1 19.5304 1.21071 20.0391 1.58579 20.4142C1.96086 20.7893 2.46957 21 3 21H15C15.5304 21 16.0391 20.7893 16.4142 20.4142C16.7893 20.0391 17 19.5304 17 19V6.5L11.5 1Z" stroke="#1E2228" stroke-linecap="round" stroke-linejoin="round"/>
<path d="M11 1V7H17" stroke="#1E2228" stroke-linecap="round" stroke-linejoin="round"/>
<path d="M10 13.0004H5" stroke="#1E2228" stroke-linecap="round" stroke-linejoin="round"/>
<path d="M13 16.9992H5" stroke="#1E2228" stroke-linecap="round" stroke-linejoin="round"/>
<path d="M6.00051 7.08928L6.00038 7.08943C5.85951 7.25087 5.75605 7.41249 5.69148 7.57441C5.60394 7.78835 5.56099 8.04049 5.56099 8.32955C5.56099 8.47948 5.68518 8.59686 5.83257 8.59686H5.97919C6.21183 8.59686 6.39361 8.41063 6.41584 8.18477C6.42633 8.07825 6.44064 7.99461 6.45824 7.93278C6.49328 7.80963 6.54695 7.70138 6.61896 7.60746C6.69135 7.51305 6.84945 7.36196 7.09776 7.15249C7.46815 6.84035 7.72161 6.57163 7.85291 6.34671C7.98433 6.12157 8.05 5.87542 8.05 5.60923C8.05 5.14826 7.86241 4.75526 7.49159 4.43267C7.11945 4.10894 6.62326 3.94957 6.00846 3.94957C5.42757 3.94957 4.95436 4.09814 4.59371 4.39985L4.59356 4.39998C4.32744 4.62442 4.14104 4.92181 4.03352 5.28991C3.96055 5.53971 4.15128 5.76923 4.39829 5.79718C4.63869 5.82439 4.84513 5.65581 4.92038 5.43724C4.99662 5.21579 5.10454 5.04504 5.24254 4.92224C5.44936 4.73818 5.7077 4.64515 6.02114 4.64515C6.34485 4.64515 6.61574 4.74826 6.83701 4.95372L6.83725 4.95393C7.05936 5.15759 7.16776 5.39151 7.16776 5.65752C7.16776 5.80419 7.13069 5.9388 7.0565 6.06237C6.98223 6.18606 6.81607 6.35855 6.55137 6.58099C6.28904 6.80112 6.10469 6.97086 6.00051 7.08928ZM5.51871 9.5871C5.51871 9.84252 5.72577 10.0496 5.98118 10.0496H6.02304C6.27846 10.0496 6.48552 9.84252 6.48552 9.5871C6.48552 9.33168 6.27846 9.12462 6.02304 9.12462H5.98119C5.72577 9.12462 5.51871 9.33168 5.51871 9.5871Z" fill="#1E2228" stroke="#1E2228" stroke-width="0.1"/>
</svg>
